<svg width="38" height="38" viewBox="0 0 38 38" fill="none" xmlns="http://www.w3.org/2000/svg">
<path d="M13.0625 33.25C14.3742 33.25 15.4375 32.1867 15.4375 30.875C15.4375 29.5633 14.3742 28.5 13.0625 28.5C11.7508 28.5 10.6875 29.5633 10.6875 30.875C10.6875 32.1867 11.7508 33.25 13.0625 33.25Z" fill="#C3BDB0"/>
<path d="M29.6875 33.25C30.9992 33.25 32.0625 32.1867 32.0625 30.875C32.0625 29.5633 30.9992 28.5 29.6875 28.5C28.3758 28.5 27.3125 29.5633 27.3125 30.875C27.3125 32.1867 28.3758 33.25 29.6875 33.25Z" fill="#C3BDB0"/>
<path d="M12.4524 22.5625H31.8488L34.6988 8.3125H9.93715L9.30852 4.75H2.375V7.125H7.31648L10.879 27.3125H32.0625V24.9375H12.871L12.4524 22.5625Z" fill="#C3BDB0"/>
</svg>
