<svg width="62" height="62" viewBox="0 0 62 62" fill="none" xmlns="http://www.w3.org/2000/svg">
<path d="M7.75 13.5625V44.5625C7.75 45.5902 8.15826 46.5758 8.88496 47.3025C9.61166 48.0292 10.5973 48.4375 11.625 48.4375H50.375C51.4027 48.4375 52.3883 48.0292 53.115 47.3025C53.8417 46.5758 54.25 45.5902 54.25 44.5625V13.5625H7.75ZM7.75 9.6875H54.25C55.2777 9.6875 56.2633 10.0958 56.99 10.8225C57.7167 11.5492 58.125 12.5348 58.125 13.5625V44.5625C58.125 46.6179 57.3085 48.5892 55.8551 50.0426C54.4017 51.496 52.4304 52.3125 50.375 52.3125H11.625C9.56957 52.3125 7.59833 51.496 6.14492 50.0426C4.69152 48.5892 3.875 46.6179 3.875 44.5625V13.5625C3.875 12.5348 4.28326 11.5492 5.00996 10.8225C5.73666 10.0958 6.72229 9.6875 7.75 9.6875Z" fill="#DEDAD1"/>
<path d="M54.7344 13.5625L39.7498 30.69C38.6586 31.9373 37.3134 32.937 35.8044 33.6219C34.2953 34.3068 32.6572 34.6611 31 34.6611C29.3428 34.6611 27.7047 34.3068 26.1956 33.6219C24.6866 32.937 23.3414 31.9373 22.2503 30.69L7.26562 13.5625H54.7344ZM12.4155 13.5625L25.1642 28.1364C25.8917 28.9681 26.7885 29.6348 27.7947 30.0915C28.8009 30.5482 29.8931 30.7845 30.9981 30.7845C32.103 30.7845 33.1952 30.5482 34.2014 30.0915C35.2076 29.6348 36.1045 28.9681 36.8319 28.1364L49.5845 13.5625H12.4155Z" fill="#DEDAD1"/>
</svg>
