<svg width="54" height="54" viewBox="0 0 54 54" fill="none" xmlns="http://www.w3.org/2000/svg">
<path d="M37.125 7.75C43.5039 7.75 48.5 12.726 48.5 19.125C48.5 23.0375 46.7444 26.6763 43.4521 30.7041C40.1489 34.7453 35.4042 39.0556 29.5908 44.3271L29.5889 44.3281L27 46.6846L24.4111 44.3281L24.4092 44.3271L22.2803 42.3936C17.4324 37.9818 13.4382 34.2402 10.5479 30.7041C7.25561 26.6763 5.5 23.0375 5.5 19.125C5.5 12.726 10.4961 7.75 16.875 7.75C20.4876 7.75 23.9717 9.43679 26.2412 12.0811L27 12.9658L27.7588 12.0811C30.0283 9.43679 33.5124 7.75 37.125 7.75Z" stroke="#212121" stroke-width="2"/>
</svg>
