<svg width="65" height="65" viewBox="0 0 65 65" fill="none" xmlns="http://www.w3.org/2000/svg">
<path d="M62.5605 17.029C58.7641 9.46359 56.2037 5.24875 54.9494 4.50227C53.9571 3.91523 52.2417 3.7507 49.0415 3.48766C46.6456 3.29164 43.6658 3.04687 42.3302 2.52383L41.0709 2.03125L40.1995 3.06922C40.1334 3.14539 36.9789 6.75289 32.501 6.75289C27.9947 6.75289 24.829 3.10578 24.7975 3.0682L23.921 2.04141L22.6687 2.52484C21.3332 3.04891 18.3544 3.29266 15.9595 3.48766C12.7583 3.7507 11.0419 3.91523 10.0527 4.50125C8.7943 5.24875 6.23391 9.46359 2.43953 17.029L2.03125 17.8415L2.38875 18.6794C5.74031 26.5535 13.6439 28.2852 13.9791 28.3552L15.0272 28.5736L13.9567 57.0537L13.913 58.2237L14.9114 58.8077C24.3852 64.3541 40.6118 64.3541 50.0866 58.8077L51.0849 58.2237L51.0402 57.0537L49.9698 28.5736L51.0179 28.3552C51.3531 28.2852 59.2566 26.5535 62.6092 18.6794L62.9688 17.8415L62.5605 17.029ZM57.4478 19.9977C55.2754 22.7825 52.6033 24.3232 49.4904 24.5913L47.8136 21.9324L49.137 57.1269C39.9364 62.5127 25.0636 62.5138 15.862 57.1269L17.1844 21.9324L15.5655 24.5273C12.4546 24.2592 9.78047 22.7165 7.61109 19.9347C6.63285 18.6642 5.83102 17.2673 5.22742 15.7818L5.16344 15.9037C6.81586 12.7156 9.98563 6.78539 11.0124 6.175C12.2627 5.43359 18.6316 5.47625 22.1477 4.67594C23.09 5.63605 24.1252 6.50019 25.2383 7.25563C26.2684 7.9529 27.3765 8.52725 28.5401 8.96695C29.9467 9.48899 31.3595 9.75305 32.7488 9.75305H32.7895C34.4703 9.74492 36.1207 9.35187 37.697 8.58C39.4367 7.72891 41.1034 6.40047 42.6634 4.63734C46.1388 5.4793 52.714 5.42039 53.9866 6.175C55.0093 6.78437 58.1628 12.677 59.8203 15.8732C59.219 17.3487 58.421 18.7361 57.4478 19.9977Z" fill="#C3BDB0"/>
</svg>
